<!--?xml version="1.0" encoding="utf-8"?-->
<!-- Generator: Adobe Illustrator 18.1.1, SVG Export Plug-In . SVG Version: 6.00 Build 0)  -->

<svg version="1.1" id="_x32_" xmlns="http://www.w3.org/2000/svg" xmlns:xlink="http://www.w3.org/1999/xlink" x="0px" y="0px" viewBox="0 0 512 512" style="width: 256px; height: 256px; opacity: 1;" xml:space="preserve">
<style type="text/css">
	.st0{fill:#4B4B4B;}
</style>
<g>
	<path class="st0" d="M453.327,196.876c0.56-2.043-6.079-1.908-14.692-3.484c-8.623-1.578-33.219,8.58-37.738,5.884
		c-4.511-2.696-37.976-10.013-49.574-22.196c-5.392-5.672-15.541-21.374-23.112-33.566c0.644-12.82-4.663-32.312-31.074-31.125
		c-13.32-2.357-21.942-3.917-25.07-9.411h-2.179c0.204-8.224,3.171-14.82,7.546-13.226c8.614,3.136,17.864-8.852,22.696-34.117
		c19.314-23.842-5.332-32.795-17.033-40.892c-3.332-10.97-27.385-22.51-37.627-7.757c-10.25,14.761-2.247,25.342-2.247,25.342
		s-3.95,11.811-1.984,16.016c-3.196,3.018,3.213,15.118,3.68,17.203c0,0,4.171,3.756,4.416,8.936
		c0.747,15.541-4.069,21.925-9.054,28.649c-3.188,1.136-17.898,6.867-26.198,6.122c-8.614-0.781-18.025-7.054-33.694,8.614
		c-15.668,15.676,1.569,40.747,1.569,40.747s0.322,0.238,0.882,0.636c-6.86,10.826-14.651,22.51-19.144,27.232
		c-11.599,12.183-50.506,40.246-54.05,44.13c-3.544,3.884-30.022,1.288-37.814,5.273c-7.8,4.002-14.184,5.8-13.066,7.58
		c2.807,4.459,7.029,0.636,10.7-1.052c3.662-1.679,8.614-0.475,8.614-0.475s-7.02,3.594-8.258,4.629
		c-1.247,1.034-6.664,2.772-5.206,4.434c2.374,2.722,5.96,0.5,8.987-1.653c3.044-2.145,9.69-2.612,12.752-2.798
		c3.052-0.187,0.754,5.155-4.325,6.774c-5.07,1.619-2.526,7.69,1.628,5.748c10.318-4.807,17.865,0.186,31.023-13.184
		c4.705-4.782,64.062-39.255,67.878-45.512c2.111-3.46,12.014-16.813,20.925-29.285c1.178,0.297,2.187,0.407,2.764,0.06
		c3.916-2.349,10.191-4.706,10.191-4.706s12.124,35.16,15.041,56.39c-21.324,12.082-92.644,62.138-153.977,217.072
		c-8.113,24.486,41.977,33.083,78.502,38.738c0,0,2.035,13.184,18.271,20.713c16.228,7.529,103.98,21.602,136.604,4.578
		c14.252-7.428,10.149-20.705,10.149-20.705s38.551,0,66.962-11.301c28.412-11.302,33.151-27.801,32.464-37.661
		c-1.136-16.499,5.774-101.071-122.148-211.638c2.365-13.861,4.315-42.078,4.315-42.078s6.401-6.682,12.617-13.702
		c7.782,10.793,15.396,21.146,17.22,24.13c3.806,6.24,35.948,21.586,68.039,24.367c18.686,1.628,22.239,2.043,33.515,3.663
		c4.536,0.644,5.214-5.901-0.11-5.978c-5.325-0.085-9.072-4.528-6.087-5.232c2.976-0.695,9.479-2.187,13.006-1.018
		c3.528,1.188,7.597,2.281,9.089-1.009c0.915-2.018-4.782-2.119-6.266-2.747c-1.492-0.619-9.25-2.043-9.25-2.043
		s4.391-2.578,8.385-2.035C446.774,199.513,451.929,201.954,453.327,196.876z" style="fill: rgb(64, 64, 64);"></path>
</g>
</svg>
