<!--?xml version="1.0" encoding="utf-8"?-->
<!-- Generator: Adobe Illustrator 18.1.1, SVG Export Plug-In . SVG Version: 6.00 Build 0)  -->

<svg version="1.1" id="_x32_" xmlns="http://www.w3.org/2000/svg" xmlns:xlink="http://www.w3.org/1999/xlink" x="0px" y="0px" viewBox="0 0 512 512" style="width: 256px; height: 256px; opacity: 1;" xml:space="preserve">
<style type="text/css">
	.st0{fill:#4B4B4B;}
</style>
<g>
	<path class="st0" d="M459.467,383.181c-7.038-16.648-18.783-30.787-33.586-40.778c-4.837-3.276-10.047-6.058-15.483-8.38
		c44.232-49.133,47.532-115.917,41.659-144.229c-7.814-37.776-37.242-90.388-96.066-81.781c0,0-31.758-34.654-82.332-30.731
		c5.372-30.375,4.886-70.133-3.543-76.88l-15.062,2.152c7.911,25.06-0.34,55.727-7.912,75.755
		c-55.685-9.059-91.132,29.704-91.132,29.704c-58.825-8.607-88.269,44.005-96.083,81.781c-5.856,28.304-2.573,95.071,41.642,144.205
		c-16.518,7.053-30.56,18.726-40.494,33.432c-9.999,14.787-15.855,32.688-15.839,51.86c-0.016,12.764,2.588,24.987,7.281,36.077
		c7.053,16.664,18.799,30.796,33.586,40.786c14.787,9.998,32.681,15.854,51.868,15.846c8.396,0,16.55-1.124,24.3-3.227
		c18.443-4.999,34.605-15.54,46.56-29.703c11.972-14.173,19.77-32.033,21.485-51.594c0.243-2.718,0.356-5.452,0.356-8.185
		c0-9.982-1.618-19.608-4.547-28.636c9.465,0.906,19.35,1.448,29.866,1.448s20.401-0.542,29.865-1.448
		c-2.928,9.028-4.546,18.654-4.546,28.636c0,12.764,2.588,24.987,7.296,36.077c7.038,16.664,18.783,30.796,33.57,40.786
		c14.803,9.998,32.696,15.854,51.868,15.846c8.396,0,16.55-1.124,24.3-3.227l0.469-0.129l-0.469,0.129
		c18.443-4.999,34.605-15.54,46.56-29.703c11.972-14.173,19.786-32.033,21.485-51.594c0.242-2.718,0.372-5.452,0.372-8.185
		C466.763,406.51,464.159,394.287,459.467,383.181z M379.416,360.45c5.145-3.349,9.918-6.916,14.431-10.629
		c2.831,0.801,5.63,1.723,8.316,2.856c6.973,2.944,13.379,6.965,19.026,11.834l-36.563,36.562c-0.874,0.874-2.184,1.141-3.332,0.664
		c-1.133-0.469-1.877-1.586-1.877-2.815V360.45z M143.343,366.905c8.316,4.562,17.456,8.558,27.341,12.02l-22.148,22.148
		c-0.857,0.874-2.184,1.141-3.316,0.664c-1.133-0.469-1.877-1.586-1.877-2.815V366.905z M71.349,391.14
		c2.945-6.956,6.973-13.364,11.843-19.018l36.562,36.572c0.874,0.857,1.133,2.183,0.664,3.316c-0.469,1.132-1.586,1.884-2.815,1.884
		H65.897C66.48,405.863,68.373,398.227,71.349,391.14z M83.192,466.434c-1.86-2.144-3.592-4.401-5.177-6.747
		c-6.859-10.159-11.179-22.1-12.134-35.026h51.722c1.229,0,2.346,0.736,2.815,1.877c0.47,1.141,0.21,2.451-0.664,3.324
		L83.192,466.434z M132.568,491.332c-8.024-0.591-15.677-2.458-22.746-5.452c-6.956-2.944-13.364-6.965-19.026-11.843l36.58-36.562
		c0.858-0.874,2.184-1.132,3.317-0.663c1.132,0.477,1.876,1.585,1.876,2.814V491.332z M130.692,401.737
		c-1.133,0.477-2.459,0.21-3.317-0.664l-36.58-36.562c2.152-1.845,4.401-3.576,6.763-5.177c6.26-4.223,13.25-7.345,20.675-9.448
		c4.482,3.688,9.222,7.231,14.334,10.564v38.472C132.568,400.152,131.824,401.268,130.692,401.737z M156.917,489.036
		L156.917,489.036c-4.384,1.188-8.914,1.974-13.574,2.313v-51.722c0-1.229,0.744-2.346,1.877-2.814
		c1.132-0.469,2.459-0.21,3.316,0.663l36.58,36.562C177.058,480.995,167.465,486.18,156.917,489.036z M209.949,425.648v0.025
		c-1.342,15.264-7.394,29.129-16.744,40.195c-0.162,0.194-0.323,0.372-0.486,0.566l-36.562-36.572
		c-0.874-0.873-1.132-2.183-0.664-3.324c0.469-1.14,1.586-1.877,2.815-1.877h51.706
		C209.997,424.986,209.981,425.325,209.949,425.648z M210.03,413.895h-51.722c-1.229,0-2.346-0.752-2.815-1.884
		c-0.469-1.133-0.21-2.459,0.664-3.316l26.079-26.096c6.52,1.86,13.379,3.462,20.562,4.797
		C206.795,395.492,209.334,404.415,210.03,413.895z M242.985,239.291H179.08c0,0-16.436-88.188,63.905-88.188V239.291z
		 M268.999,151.103c80.341,0,63.905,88.188,63.905,88.188h-63.905V151.103z M329.749,382.598l26.079,26.096
		c0.874,0.857,1.149,2.183,0.664,3.316c-0.469,1.132-1.586,1.884-2.815,1.884h-51.706c0.599-8.032,2.475-15.668,5.452-22.755
		c0.566-1.319,1.343-2.508,1.974-3.786C316.499,386.028,323.294,384.442,329.749,382.598z M319.266,466.434
		c-1.845-2.144-3.592-4.401-5.177-6.747c-6.859-10.159-11.179-22.1-12.134-35.026h51.722c1.229,0,2.346,0.736,2.815,1.877
		c0.485,1.141,0.227,2.451-0.664,3.324L319.266,466.434z M368.641,491.332c-8.024-0.591-15.66-2.458-22.73-5.452
		c-6.973-2.944-13.38-6.965-19.042-11.843l36.58-36.562c0.858-0.874,2.184-1.132,3.317-0.663c1.132,0.477,1.876,1.585,1.876,2.814
		V491.332z M366.765,401.737c-1.133,0.477-2.459,0.21-3.317-0.664L341.3,378.926c9.885-3.462,19.026-7.458,27.341-12.012v32.009
		C368.641,400.152,367.898,401.268,366.765,401.737z M392.99,489.036c-4.384,1.188-8.914,1.974-13.574,2.313v-51.722
		c0-1.229,0.744-2.346,1.877-2.814c1.148-0.469,2.458-0.21,3.332,0.663l36.563,36.562
		C413.132,480.995,403.538,486.18,392.99,489.036z M446.022,425.648v0.025c-1.343,15.264-7.394,29.129-16.728,40.195
		c-0.162,0.194-0.34,0.372-0.502,0.566l-36.562-36.572c-0.874-0.873-1.132-2.183-0.664-3.324c0.469-1.14,1.586-1.877,2.815-1.877
		h51.706C446.071,424.986,446.055,425.325,446.022,425.648z M394.381,413.895c-1.229,0-2.346-0.752-2.815-1.884
		c-0.469-1.133-0.21-2.459,0.664-3.316l36.562-36.58c1.86,2.152,3.592,4.401,5.177,6.763c6.86,10.151,11.196,22.083,12.134,35.018
		H394.381z" style="fill: rgb(255, 255, 255);"></path>
	<path class="st0" d="M225.399,48.565c0,0-4.836,14.14,3.09,14.447c7.912,0.308,35.56-28.474,18.573-46.205
		c-11.05-11.551-44.507-22.779-40.624-13.185c3.899,9.61,6.795,13.072,6.795,13.072s-19.527,0.76-33.068,19.43
		C180.165,36.124,200.954,57.965,225.399,48.565z" style="fill: rgb(255, 255, 255);"></path>
</g>
</svg>
